<svg width="1024" height="1024" viewBox="0 0 1024 1024" fill="none" xmlns="http://www.w3.org/2000/svg">
<g clip-path="url(#clip0_0_388)">
<rect width="1024" height="1024" fill="white"/>
<rect width="1024" height="1024" fill="#0D0D0D"/>
<path d="M511.66 277.644C560.156 339.396 586.043 415.546 585.105 493.685V512.338L601.105 522.103C621.778 534.656 637.196 554.125 644.55 576.964C638.094 572.196 631.339 567.835 624.327 563.907L581.66 539.878L573.994 588.375C573.329 592.66 572.439 596.909 571.327 601.103H451.77C449.992 595.617 448.548 590.131 447.215 584.425L437.548 540.536L398.214 562.481C391.643 566.167 385.298 570.233 379.214 574.66C386.71 552.085 401.807 532.725 421.992 519.799L437.214 510.034V492.698C437.489 414.876 463.688 339.305 511.771 277.644H511.66ZM511.771 232C509.277 232.006 506.87 232.902 504.993 234.524L503.993 235.401C439.921 306.164 404.342 397.666 403.992 492.588C376.803 510.008 356.677 536.308 347.131 566.893C337.585 597.478 339.227 630.402 351.769 659.913C364.982 631.099 387.068 607.138 414.881 591.447C417.67 603.378 421.385 615.08 425.992 626.448C426.576 628.634 427.872 630.569 429.678 631.957C431.485 633.344 433.703 634.108 435.992 634.129H590.216C593.327 634.129 596.438 631.166 597.994 626.558C602.49 615.75 605.625 604.437 607.327 592.874C635.193 608.499 657.298 632.479 670.439 661.34C683.738 631.974 685.797 598.841 676.234 568.09C666.671 537.339 646.135 511.058 618.438 494.124C619.537 398.642 584.147 306.259 519.326 235.401C518.361 234.336 517.18 233.482 515.859 232.896C514.538 232.31 513.108 232.005 511.66 232H511.771Z" fill="#03D361"/>
<path d="M511.66 483.481C503.125 483.481 494.782 480.986 487.681 476.31C480.581 471.635 475.041 464.988 471.76 457.208C468.479 449.429 467.604 440.864 469.245 432.593C470.886 424.323 474.969 416.718 480.981 410.735C486.992 404.753 494.663 400.663 503.025 398.979C511.387 397.295 520.067 398.093 527.971 401.273C535.874 404.453 542.647 409.873 547.436 416.848C552.226 423.824 554.816 432.043 554.882 440.471C555.015 445.932 554.057 451.366 552.063 456.461C550.068 461.557 547.077 466.214 543.259 470.168C539.441 474.121 534.872 477.293 529.812 479.502C524.752 481.711 519.301 482.914 513.771 483.043C513.072 483.153 512.359 483.153 511.66 483.043V483.481Z" fill="#03D361"/>
<path d="M571.771 661.449C568.991 661.362 566.221 661.823 563.624 662.807C561.027 663.79 558.655 665.276 556.647 667.177C554.639 669.078 553.036 671.356 551.932 673.876C550.827 676.397 550.244 679.111 550.216 681.858V746.593C550.216 752.239 552.487 757.653 556.529 761.645C560.572 765.636 566.054 767.879 571.771 767.879C577.488 767.879 582.971 765.636 587.014 761.645C591.056 757.653 593.327 752.239 593.327 746.593V682.735C593.416 679.999 592.952 677.273 591.963 674.715C590.974 672.158 589.479 669.82 587.566 667.839C585.653 665.858 583.359 664.272 580.819 663.175C578.279 662.078 575.543 661.492 572.771 661.449H571.771Z" fill="#8257E6"/>
<path d="M451.77 661.45C448.943 661.302 446.114 661.717 443.453 662.671C440.791 663.625 438.351 665.098 436.278 667.002C434.205 668.906 432.54 671.202 431.384 673.754C430.228 676.307 429.603 679.062 429.548 681.858V746.593C429.548 752.239 431.819 757.653 435.861 761.645C439.904 765.637 445.387 767.879 451.103 767.879C456.82 767.879 462.303 765.637 466.346 761.645C470.388 757.653 472.659 752.239 472.659 746.593V682.735C472.748 679.999 472.284 677.273 471.295 674.715C470.306 672.158 468.811 669.82 466.898 667.839C464.985 665.858 462.691 664.273 460.151 663.176C457.611 662.079 454.876 661.492 452.104 661.45H451.77Z" fill="#8257E6"/>
<path d="M510.104 661.45C507.331 661.391 504.574 661.873 501.99 662.867C499.407 663.861 497.046 665.349 495.045 667.244C493.043 669.139 491.439 671.405 490.324 673.913C489.209 676.42 488.606 679.12 488.548 681.858V771.061C488.548 776.707 490.819 782.121 494.862 786.113C498.904 790.105 504.387 792.347 510.104 792.347C515.821 792.347 521.304 790.105 525.346 786.113C529.389 782.121 531.66 776.707 531.66 771.061V683.284C531.749 680.548 531.285 677.821 530.296 675.264C529.307 672.706 527.812 670.369 525.899 668.388C523.985 666.407 521.692 664.821 519.152 663.724C516.612 662.627 513.876 662.04 511.104 661.998L510.104 661.45Z" fill="#8257E6"/>
<path fill-rule="evenodd" clip-rule="evenodd" d="M357.012 0H0V357.006C0 254.208 0 202.809 17.499 147.479C39.4866 87.0685 87.0741 39.4809 147.484 17.4933C202.815 0 254.214 0 357.012 0ZM666.988 0C769.792 0 821.191 0 876.521 17.4933C936.932 39.4809 984.519 87.0685 1006.51 147.479C1024 202.809 1024 254.208 1024 357.006V0H666.988ZM1024 666.988C1024 769.786 1024 821.185 1006.51 876.521C984.519 936.926 936.932 984.513 876.521 1006.5C821.191 1024 769.792 1024 666.988 1024H1024V666.988ZM357.012 1024C254.214 1024 202.815 1024 147.484 1006.5C87.0741 984.513 39.4866 936.926 17.499 876.521C0 821.185 0 769.786 0 666.988V1024H357.012Z" fill="#0D0D0D"/>
</g>
<defs>
<clipPath id="clip0_0_388">
<rect width="1024" height="1024" fill="white"/>
</clipPath>
</defs>
</svg>
